<svg width="101" height="100" viewBox="0 0 101 100" fill="none" xmlns="http://www.w3.org/2000/svg">
<path d="M100.725 50C100.725 77.6125 78.3083 100 50.6595 100C23.0107 100 0.59375 77.6125 0.59375 50H8.93804C8.93804 72.975 27.6543 91.6667 50.6595 91.6667C73.6647 91.6667 92.3809 72.975 92.3809 50C92.3809 27.025 73.6647 8.33333 50.6595 8.33333C39.0734 8.33333 28.6014 13.0875 21.0414 20.7375L29.6402 29.325L0.59375 34.9667L6.0384 5.74583L15.1295 14.8292C24.1914 5.67917 36.7496 0 50.6595 0C78.3083 0 100.725 22.3875 100.725 50ZM46.4873 25V58.3333H75.6924V50H54.8316V25H46.4873Z" fill="black" fill-opacity="0.84"/>
</svg>
