<svg width="101" height="102" viewBox="0 0 101 102" fill="none" xmlns="http://www.w3.org/2000/svg">
<path fill-rule="evenodd" clip-rule="evenodd" d="M10.3803 50.8118C10.381 43.0277 12.6058 35.4092 16.7877 28.8703C20.9695 22.3315 26.9308 17.1501 33.9563 13.948C40.9817 10.7458 48.7729 9.65885 56.3949 10.8175C64.0168 11.9762 71.1459 15.3314 76.9265 20.4803C82.7072 25.6293 86.8939 32.3534 88.9843 39.8457C91.0747 47.338 90.98 55.2804 88.7116 62.7197C86.4431 70.1591 82.0973 76.7794 76.1955 81.7863C70.2938 86.7932 63.0868 89.974 55.4394 90.947V60.924H65.4526C66.7804 60.924 68.0538 60.3913 68.9927 59.4431C69.9317 58.4949 70.4591 57.2088 70.4591 55.8679C70.4591 54.5269 69.9317 53.2409 68.9927 52.2927C68.0538 51.3445 66.7804 50.8118 65.4526 50.8118H55.4394V40.6996C55.4394 39.3587 55.9669 38.0726 56.9058 37.1244C57.8447 36.1762 59.1182 35.6435 60.446 35.6435H62.9493C64.2771 35.6435 65.5505 35.1109 66.4895 34.1627C67.4284 33.2145 67.9558 31.9284 67.9558 30.5875C67.9558 29.2465 67.4284 27.9605 66.4895 27.0123C65.5505 26.0641 64.2771 25.5314 62.9493 25.5314H60.446C56.4625 25.5314 52.6422 27.1295 49.8255 29.9741C47.0087 32.8187 45.4263 36.6768 45.4263 40.6996V50.8118H35.4132C34.0853 50.8118 32.8119 51.3445 31.873 52.2927C30.9341 53.2409 30.4066 54.5269 30.4066 55.8679C30.4066 57.2088 30.9341 58.4949 31.873 59.4431C32.8119 60.3913 34.0853 60.924 35.4132 60.924H45.4263V90.947C35.7471 89.7143 26.846 84.9569 20.3935 77.5673C13.9409 70.1777 10.3805 60.6641 10.3803 50.8118ZM50.4329 101.373C78.0841 101.373 100.499 78.7365 100.499 50.8118C100.499 22.8871 78.0841 0.250977 50.4329 0.250977C22.7816 0.250977 0.367188 22.8871 0.367188 50.8118C0.367188 78.7365 22.7816 101.373 50.4329 101.373Z" fill="#FDF3F3"/>
</svg>
