<svg width="101" height="102" viewBox="0 0 101 102" fill="none" xmlns="http://www.w3.org/2000/svg">
<path fill-rule="evenodd" clip-rule="evenodd" d="M50.0892 0.341797C36.4914 0.341797 34.7891 0.40247 29.4471 0.645161C24.1201 0.892909 20.4803 1.74739 17.2961 2.99624C13.9542 4.26453 10.9265 6.25403 8.42448 8.8259C5.87791 11.3528 3.90791 14.4104 2.65189 17.7853C1.41527 21.0009 0.569154 24.6767 0.323832 30.0564C0.0785096 35.4512 0.0234375 37.1703 0.0234375 50.9026C0.0234375 64.6349 0.0785096 66.354 0.323832 71.7488C0.569154 77.1285 1.41527 80.8043 2.65189 84.0199C3.90806 87.3948 5.87804 90.4523 8.42448 92.9793C10.9267 95.5509 13.9543 97.5404 17.2961 98.809C20.4803 100.058 24.1201 100.912 29.4471 101.16C34.7891 101.403 36.4914 101.463 50.0892 101.463C63.6871 101.463 65.3893 101.403 70.7314 101.16C76.0584 100.912 79.6981 100.058 82.8823 98.809C86.2242 97.5406 89.2518 95.5511 91.754 92.9793C94.3006 90.4524 96.2706 87.3949 97.5266 84.0199C98.7632 80.8043 99.6093 77.1285 99.8546 71.7488C100.095 66.354 100.155 64.6349 100.155 50.9026C100.155 37.1703 100.095 35.4512 99.8546 30.0564C99.6093 24.6767 98.7632 21.0009 97.5266 17.7853C96.2706 14.4104 94.3006 11.3528 91.754 8.8259C89.2519 6.25403 86.2243 4.26453 82.8823 2.99624C79.6981 1.74739 76.0584 0.892909 70.7314 0.645161C65.3893 0.40247 63.6871 0.341797 50.0892 0.341797ZM50.0892 9.45286C63.4568 9.45286 65.0389 9.50342 70.3158 9.74611C75.2022 9.97363 77.8507 10.7927 79.618 11.4854C81.9511 12.4056 83.6233 13.5028 85.3756 15.2674C87.1279 17.037 88.2093 18.7257 89.1205 21.0818C89.8014 22.8666 90.6225 25.5413 90.8428 30.471C91.0831 35.8052 91.1332 37.3978 91.1332 50.9026C91.1332 64.4024 91.0831 66.0001 90.8428 71.3292C90.6175 76.2639 89.8014 78.9386 89.1205 80.7234C88.3179 82.9197 87.0382 84.9065 85.3756 86.5379C83.6233 88.3075 81.9511 89.3996 79.618 90.3198C77.8507 91.0075 75.2022 91.8366 70.3208 92.0591C65.0439 92.3018 63.4618 92.3524 50.0892 92.3524C36.7217 92.3524 35.1346 92.3018 29.8627 92.0591C24.9762 91.8316 22.3277 91.0075 20.5604 90.3198C18.3855 89.5095 16.4181 88.2172 14.8029 86.5379C13.14 84.9067 11.8603 82.9198 11.0579 80.7234C10.372 78.9386 9.55596 76.2639 9.33567 71.3342C9.09536 66.0001 9.04529 64.4074 9.04529 50.9026C9.04529 37.4029 9.09536 35.8052 9.33567 30.476C9.56097 25.5413 10.372 22.8666 11.0579 21.0818C11.9691 18.7257 13.0556 17.037 14.8029 15.2674C16.5552 13.4977 18.2274 12.4056 20.5604 11.4854C22.3277 10.7927 24.9762 9.96858 29.8576 9.74611C35.1396 9.50342 36.7167 9.45286 50.0892 9.45286ZM50.0892 67.7545C45.6636 67.7545 41.4192 65.9791 38.2898 62.8187C35.1604 59.6584 33.4023 55.372 33.4023 50.9026C33.4023 46.4332 35.1604 42.1469 38.2898 38.9865C41.4192 35.8262 45.6636 34.0507 50.0892 34.0507C54.5149 34.0507 58.7593 35.8262 61.8887 38.9865C65.0181 42.1469 66.7762 46.4332 66.7762 50.9026C66.7762 55.372 65.0181 59.6584 61.8887 62.8187C58.7593 65.9791 54.5149 67.7545 50.0892 67.7545ZM50.0892 24.9396C46.7131 24.9396 43.37 25.6112 40.2509 26.9159C37.1318 28.2207 34.2977 30.1331 31.9104 32.544C29.5231 34.9549 27.6294 37.817 26.3374 40.967C25.0454 44.117 24.3804 47.4931 24.3804 50.9026C24.3804 54.3121 25.0454 57.6882 26.3374 60.8382C27.6294 63.9882 29.5231 66.8503 31.9104 69.2612C34.2977 71.6721 37.1318 73.5845 40.2509 74.8893C43.37 76.194 46.7131 76.8656 50.0892 76.8656C56.9076 76.8656 63.4468 74.1302 68.2681 69.2612C73.0894 64.3922 75.798 57.7884 75.798 50.9026C75.798 44.0168 73.0894 37.413 68.2681 32.544C63.4468 27.675 56.9076 24.9396 50.0892 24.9396ZM82.8223 23.9133C82.8223 24.71 82.6668 25.499 82.3649 26.2351C82.063 26.9712 81.6205 27.6401 81.0626 28.2035C80.5047 28.7669 79.8424 29.2138 79.1135 29.5187C78.3846 29.8236 77.6033 29.9805 76.8143 29.9805C76.0254 29.9805 75.2441 29.8236 74.5152 29.5187C73.7863 29.2138 73.124 28.7669 72.5661 28.2035C72.0082 27.6401 71.5657 26.9712 71.2638 26.2351C70.9619 25.499 70.8065 24.71 70.8065 23.9133C70.8065 22.3041 71.4394 20.7609 72.5661 19.623C73.6928 18.4852 75.221 17.846 76.8143 17.846C78.4077 17.846 79.9359 18.4852 81.0626 19.623C82.1893 20.7609 82.8223 22.3041 82.8223 23.9133Z" fill="white"/>
</svg>
