<svg width="101" height="102" viewBox="0 0 101 102" fill="none" xmlns="http://www.w3.org/2000/svg">
<path d="M50.7455 8.7686C73.7507 8.7686 92.467 27.6699 92.467 50.9026C92.467 74.1353 73.7507 93.0366 50.7455 93.0366C27.7402 93.0366 9.02399 74.1353 9.02399 50.9026C9.02399 27.6699 27.7402 8.7686 50.7455 8.7686ZM50.7455 0.341797C23.0966 0.341797 0.679688 22.9804 0.679688 50.9026C0.679688 78.8248 23.0966 101.463 50.7455 101.463C78.3943 101.463 100.811 78.8248 100.811 50.9026C100.811 22.9804 78.3943 0.341797 50.7455 0.341797ZM42.4012 34.049C42.4012 36.3959 40.5362 38.2961 38.229 38.2961C35.9218 38.2961 34.0569 36.4001 34.0569 34.049C34.0569 31.7021 35.9218 29.8019 38.229 29.8019C40.5362 29.8019 42.4012 31.7064 42.4012 34.049ZM42.4012 42.4758H34.0569V67.7562H42.4012V42.4758ZM54.9176 42.4758H46.5733V67.7562H54.9176V55.7017C54.9176 48.4462 63.2703 47.7763 63.2703 55.7017V67.7562H71.6062V53.6034C71.6062 39.7666 58.5557 40.2722 54.9176 47.0811V42.4758Z" fill="#FFF3F3"/>
</svg>
