<svg width="106" height="108" viewBox="0 0 106 108" fill="none" xmlns="http://www.w3.org/2000/svg">
<path d="M83.6523 77.1655L106 99.6771L98.617 107.116L76.2743 84.5993C67.9609 91.3139 57.6206 94.9661 46.9658 94.9508C21.0436 94.9508 0.00537109 73.7536 0.00537109 47.6356C0.00537109 21.5175 21.0436 0.320312 46.9658 0.320312C72.8879 0.320312 93.9262 21.5175 93.9262 47.6356C93.9413 58.3709 90.3166 68.7894 83.6523 77.1655ZM73.1853 73.2646C79.8073 66.4033 83.5055 57.206 83.4905 47.6356C83.4905 27.3058 67.1431 10.8348 46.9658 10.8348C26.7885 10.8348 10.441 27.3058 10.441 47.6356C10.441 67.9653 26.7885 84.4363 46.9658 84.4363C56.4644 84.4514 65.5928 80.7253 72.4026 74.0532L73.1853 73.2646Z" fill="white"/>
</svg>
