<svg width="101" height="102" viewBox="0 0 101 102" fill="none" xmlns="http://www.w3.org/2000/svg">
<path d="M50.3977 8.7686C73.4029 8.7686 92.1191 27.6699 92.1191 50.9026C92.1191 74.1353 73.4029 93.0366 50.3977 93.0366C27.3925 93.0366 8.67631 74.1353 8.67631 50.9026C8.67631 27.6699 27.3925 8.7686 50.3977 8.7686ZM50.3977 0.341797C22.7489 0.341797 0.332031 22.9804 0.332031 50.9026C0.332031 78.8248 22.7489 101.463 50.3977 101.463C78.0465 101.463 100.463 78.8248 100.463 50.9026C100.463 22.9804 78.0465 0.341797 50.3977 0.341797ZM77.5166 37.327C75.6767 38.1529 73.6949 38.709 71.6172 38.9618C73.7408 37.6767 75.3638 35.6459 76.1356 33.2232C74.1497 34.4114 71.951 35.2751 69.6104 35.7386C67.7413 33.7204 65.0669 32.4606 62.1172 32.4606C55.4835 32.4606 50.6105 38.709 52.1083 45.1977C43.5763 44.7637 36.0038 40.6346 30.9388 34.3608C28.2478 39.0208 29.5454 45.1218 34.118 48.2103C32.4366 48.1555 30.8554 47.6878 29.4703 46.9125C29.3576 51.7158 32.7704 56.2115 37.7102 57.2143C36.2667 57.6103 34.6813 57.703 33.0708 57.3913C34.3767 61.512 38.1775 64.5077 42.6667 64.5919C38.3402 68.0132 32.9039 69.5427 27.4509 68.8938C31.9986 71.839 37.3931 73.5539 43.1924 73.5539C62.2674 73.5539 73.0399 57.2859 72.3891 42.6949C74.4 41.2371 76.1398 39.4085 77.5166 37.327Z" fill="#FFFEFE"/>
</svg>
