<svg width="100" height="100" viewBox="0 0 100 100" fill="none" xmlns="http://www.w3.org/2000/svg">
<path d="M97.785 2.2908C97.0833 1.58765 96.2498 1.0298 95.3323 0.649179C94.4147 0.268556 93.4311 0.0726357 92.4377 0.0726357C91.4443 0.0726357 90.4607 0.268556 89.5431 0.649179C88.6255 1.0298 87.792 1.58765 87.0903 2.2908L50 39.3053L12.9097 2.21495C12.2075 1.51273 11.3738 0.955689 10.4563 0.575646C9.5388 0.195603 8.55543 7.39916e-09 7.56233 0C6.56923 -7.39917e-09 5.58585 0.195603 4.66835 0.575646C3.75085 0.955689 2.91718 1.51273 2.21495 2.21495C1.51273 2.91718 0.955689 3.75085 0.575646 4.66835C0.195603 5.58585 -7.39916e-09 6.56923 0 7.56233C7.39917e-09 8.55543 0.195603 9.5388 0.575646 10.4563C0.955689 11.3738 1.51273 12.2075 2.21495 12.9097L39.3053 50L2.21495 87.0903C1.51273 87.7925 0.955689 88.6262 0.575646 89.5437C0.195603 90.4612 0 91.4446 0 92.4377C0 93.4308 0.195603 94.4142 0.575646 95.3317C0.955689 96.2492 1.51273 97.0828 2.21495 97.785C2.91718 98.4873 3.75085 99.0443 4.66835 99.4244C5.58585 99.8044 6.56923 100 7.56233 100C8.55543 100 9.5388 99.8044 10.4563 99.4244C11.3738 99.0443 12.2075 98.4873 12.9097 97.785L50 60.6947L87.0903 97.785C87.7925 98.4873 88.6262 99.0443 89.5437 99.4244C90.4612 99.8044 91.4446 100 92.4377 100C93.4308 100 94.4142 99.8044 95.3317 99.4244C96.2492 99.0443 97.0828 98.4873 97.785 97.785C98.4873 97.0828 99.0443 96.2492 99.4244 95.3317C99.8044 94.4142 100 93.4308 100 92.4377C100 91.4446 99.8044 90.4612 99.4244 89.5437C99.0443 88.6262 98.4873 87.7925 97.785 87.0903L60.6947 50L97.785 12.9097C100.667 10.0274 100.667 5.17308 97.785 2.2908Z" fill="white"/>
</svg>
